# xmcd
#
# Track frame offsets: 
#        150
#        4737
#        12890
#        31260
#        50575
#        70417
#        75710
#        94020
#        113417
#        132895
#        136550
#        156220
#        175847
#        199912
#        217250
#        235615
#        258417
#        278052
#        286192
#
# Disc length: 4138 seconds
#
# Revision: 10
# Processed by: cddbd v1.5.2PL0 Copyright (c) Steve Scherf et al.
# Submitted via: ExactAudioCopyFreeDBPlugin 1.0
#
DISCID=fd102813
DTITLE=112 - Room 112
DYEAR=1998
DGENRE=R&B
TTITLE0=Room 112 (Intro)
TTITLE1=So Much Love (Interlude)
TTITLE2=Be With You
TTITLE3=Love Me Feat. Mase
TTITLE4=The Only One Feat. Lil' Kim
TTITLE5=Anywhere (Interlude)
TTITLE6=Anywhere
TTITLE7=Love You Like I Did
TTITLE8=For Awhile Feat. Faith Evans
TTITLE9=Don't Go Away (Interlude)
TTITLE10=Stay With Me
TTITLE11=Whatcha Gonna Do Feat. MJG
TTITLE12=Crazy Over You
TTITLE13=Funny Feelings
TTITLE14=Never Mind
TTITLE15=Someone To Hold
TTITLE16=All My Love
TTITLE17=You Are The Only One (Interlude)
TTITLE18=Your Letter
EXTD=YEAR: 1998
EXTT0=
EXTT1=
EXTT2=
EXTT3=
EXTT4=
EXTT5=
EXTT6=
EXTT7=
EXTT8=
EXTT9=
EXTT10=
EXTT11=
EXTT12=
EXTT13=
EXTT14=
EXTT15=
EXTT16=
EXTT17=
EXTT18=
PLAYORDER=
